<svg xmlns="http://www.w3.org/2000/svg" width="640" height="360" viewBox="0 0 640 360">
  <rect width="640" height="360" fill="#f5f8fa"/>
  <rect x="36" y="32" width="568" height="296" rx="18" fill="#ffffff" stroke="#d9e5ec"/>
  <text x="64" y="78" font-family="-apple-system,BlinkMacSystemFont,Segoe UI,sans-serif" font-size="24" font-weight="800" fill="#101418">短端资金利率</text>
  <text x="64" y="112" font-family="-apple-system,BlinkMacSystemFont,Segoe UI,sans-serif" font-size="16" fill="#5b6672">mock-xueqiu chart reference</text>
  <path d="M72 278H570" stroke="#d9e5ec" stroke-width="2"/>
  <path d="M72 226H570" stroke="#edf3f6" stroke-width="2"/>
  <path d="M72 174H570" stroke="#edf3f6" stroke-width="2"/>
  <path d="M72 122H570" stroke="#edf3f6" stroke-width="2"/>
  <path d="M84 244C132 238 150 224 188 232C226 240 238 190 280 198C322 206 352 154 390 164C428 174 444 138 486 130C528 122 542 116 570 104" fill="none" stroke="#1688e8" stroke-width="7" stroke-linecap="round"/>
  <circle cx="570" cy="104" r="9" fill="#0d9f6e"/>
</svg>
